<svg width="9" height="11" viewBox="0 0 9 14" fill="none" xmlns="http://www.w3.org/2000/svg">
<path d="M4.59 0.291999C5.778 0.291999 6.738 0.627999 7.47 1.3C8.202 1.972 8.568 2.872 8.568 4C8.568 5.26 8.178 6.196 7.398 6.808C6.618 7.408 5.562 7.708 4.23 7.708L4.176 9.418H2.754L2.682 6.574H3.204C4.392 6.574 5.322 6.394 5.994 6.034C6.666 5.674 7.002 4.996 7.002 4C7.002 3.28 6.786 2.71 6.354 2.29C5.922 1.87 5.34 1.66 4.608 1.66C3.864 1.66 3.276 1.864 2.844 2.272C2.424 2.668 2.214 3.214 2.214 3.91H0.666C0.666 3.19 0.828 2.56 1.152 2.02C1.476 1.468 1.932 1.042 2.52 0.741999C3.12 0.441999 3.81 0.291999 4.59 0.291999ZM3.456 13.108C3.144 13.108 2.88 13 2.664 12.784C2.448 12.568 2.34 12.304 2.34 11.992C2.34 11.68 2.448 11.416 2.664 11.2C2.88 10.984 3.144 10.876 3.456 10.876C3.756 10.876 4.008 10.984 4.212 11.2C4.428 11.416 4.536 11.68 4.536 11.992C4.536 12.304 4.428 12.568 4.212 12.784C4.008 13 3.756 13.108 3.456 13.108Z" fill="white"/>
</svg>
